<?xml version="1.0" encoding="utf-8"?>
<!-- Generator: Adobe Illustrator 16.0.4, SVG Export Plug-In . SVG Version: 6.00 Build 0)  -->
<svg version="1.2" baseProfile="tiny" id="Layer_1" xmlns="http://www.w3.org/2000/svg" xmlns:xlink="http://www.w3.org/1999/xlink"
	 x="0px" y="0px" width="375px" height="37px" viewBox="0 0 375 37" xml:space="preserve">
<g>
	<polygon fill="#FFFFFF" points="213.902,28.082 213.902,8.919 225.478,8.919 225.478,10.859 216.035,10.859 216.035,16.885 
		221.513,16.885 221.513,18.832 216.035,18.832 216.035,26.139 225.891,26.139 225.891,28.082 	"/>
	<g>
		<path fill="#FFFFFF" d="M242.452,28.082l-8.376-13.113c-0.414-0.656-1.122-1.917-1.365-2.411v1.316v14.208h-2.057V8.919h2.078
			l8.296,13.359c0.41,0.658,1.12,1.914,1.367,2.407v-1.312V8.919h2.055v19.163H242.452z"/>
		<polygon fill="#FFFFFF" points="256.769,10.859 256.769,28.082 254.631,28.082 254.631,10.859 248.999,10.859 248.999,8.919 
			262.41,8.919 262.41,10.859 		"/>
		<polygon fill="#FFFFFF" points="266.955,28.082 266.955,8.919 278.536,8.919 278.536,10.859 269.09,10.859 269.09,16.885 
			274.564,16.885 274.564,18.832 269.09,18.832 269.09,26.139 278.943,26.139 278.943,28.082 		"/>
		<path fill="#FFFFFF" d="M292.742,19.761l4.215,8.321h-2.463l-4.104-8.159h-4.547v8.159h-2.133V8.919h7.576
			c3.374,0,5.972,1.725,5.972,5.421C297.258,17.323,295.476,19.184,292.742,19.761 M291.209,10.859h-5.366v7.146h5.095
			c2.843,0,4.186-1.176,4.186-3.586C295.124,12.068,293.754,10.859,291.209,10.859"/>
		<path fill="#FFFFFF" d="M308.978,20.554h-4.655v7.528h-2.136V8.919h7.173c3.475,0,6.101,1.835,6.101,5.72
			C315.46,18.447,312.807,20.554,308.978,20.554 M309.273,10.859h-4.95v7.75H309c2.935,0,4.326-1.34,4.326-3.885
			C313.327,12.259,311.907,10.859,309.273,10.859"/>
		<path fill="#FFFFFF" d="M328.824,19.761l4.212,8.321h-2.46l-4.109-8.159h-4.538v8.159h-2.134V8.919h7.579
			c3.364,0,5.969,1.725,5.969,5.421C333.342,17.323,331.561,19.184,328.824,19.761 M327.291,10.859h-5.362v7.146h5.084
			c2.852,0,4.194-1.176,4.194-3.586C331.207,12.068,329.835,10.859,327.291,10.859"/>
		<rect x="338.41" y="8.921" fill="#FFFFFF" width="2.128" height="19.162"/>
		<path fill="#FFFFFF" d="M351.817,28.382c-2.598,0-4.922-1.122-6.432-2.654l1.425-1.583c1.448,1.391,3.12,2.295,5.089,2.295
			c2.548,0,4.137-1.261,4.137-3.286c0-1.776-1.072-2.794-4.57-4.053c-4.138-1.473-5.532-2.816-5.532-5.581
			c0-3.067,2.409-4.902,5.995-4.902c2.573,0,4.213,0.769,5.83,2.054l-1.371,1.668c-1.391-1.147-2.679-1.778-4.592-1.778
			c-2.633,0-3.724,1.315-3.724,2.818c0,1.587,0.71,2.49,4.54,3.862c4.242,1.531,5.557,2.955,5.557,5.802
			C358.168,26.056,355.814,28.382,351.817,28.382"/>
		<polygon fill="#FFFFFF" points="363.292,28.082 363.292,8.919 374.867,8.919 374.867,10.859 365.427,10.859 365.427,16.885 
			370.896,16.885 370.896,18.832 365.427,18.832 365.427,26.139 375.284,26.139 375.284,28.082 		"/>
		<path fill="#FFFFFF" d="M58.091,12.418c-2.682,0-4.462,2.165-4.462,6.051c0,3.886,1.863,6.104,4.547,6.104
			c2.683,0,4.459-2.164,4.459-6.051C62.635,14.637,60.773,12.418,58.091,12.418 M58.119,28.378c-5.009,0-8.433-3.67-8.433-9.855
			c0-6.184,3.478-9.91,8.489-9.91c4.979,0,8.402,3.669,8.402,9.857C66.578,24.655,63.1,28.378,58.119,28.378"/>
		<path fill="#FFFFFF" d="M78.479,12.637h-4.407v4.93h4.463c1.778,0,2.734-0.822,2.734-2.494
			C81.27,13.403,80.177,12.637,78.479,12.637 M78.288,21.289h-4.215v6.788h-3.833V8.917h8.376c3.613,0,6.597,1.998,6.597,6.075
			C85.212,19.429,82.258,21.289,78.288,21.289"/>
		<polygon fill="#FFFFFF" points="89.177,28.075 89.177,8.917 102.479,8.917 102.479,12.665 93.006,12.665 93.006,15.979 
			98.508,15.979 98.508,19.7 93.006,19.7 93.006,24.326 102.889,24.326 102.889,28.075 		"/>
		<path fill="#FFFFFF" d="M119.388,28.075l-7.036-10.456c-0.465-0.71-1.094-1.669-1.341-2.16c0,0.711,0.055,3.118,0.055,4.188v8.429
			h-3.776V8.917h3.667l6.788,10.126c0.467,0.711,1.095,1.672,1.343,2.163c0-0.715-0.055-3.12-0.055-4.188V8.917h3.776v19.159
			H119.388z"/>
		<path fill="#FFFFFF" d="M133.951,28.378c-2.6,0-4.927-1.124-6.431-2.653l1.422-1.591c1.45,1.396,3.12,2.301,5.091,2.301
			c2.546,0,4.135-1.259,4.135-3.285c0-1.782-1.068-2.791-4.572-4.05c-4.134-1.48-5.529-2.82-5.529-5.586
			c0-3.067,2.408-4.901,5.993-4.901c2.576,0,4.218,0.766,5.835,2.055l-1.371,1.67c-1.395-1.151-2.684-1.782-4.601-1.782
			c-2.625,0-3.721,1.315-3.721,2.819c0,1.59,0.713,2.492,4.542,3.863c4.244,1.531,5.558,2.953,5.558,5.802
			C140.301,26.052,137.947,28.378,133.951,28.378"/>
		<polygon fill="#FFFFFF" points="156.719,28.075 156.719,19.043 147.193,19.043 147.193,28.075 145.058,28.075 145.058,8.917 
			147.193,8.917 147.193,17.102 156.719,17.102 156.719,8.917 158.855,8.917 158.855,28.075 		"/>
		<rect x="164.345" y="8.917" fill="#FFFFFF" width="2.136" height="19.159"/>
		<polygon fill="#FFFFFF" points="174.114,10.859 174.114,17.211 179.368,17.211 179.368,19.153 174.114,19.153 174.114,28.075 
			171.978,28.075 171.978,8.917 183.23,8.917 183.23,10.859 		"/>
		<polygon fill="#FFFFFF" points="194.833,10.859 194.833,28.075 192.697,28.075 192.697,10.859 187.061,10.859 187.061,8.917 
			200.472,8.917 200.472,10.859 		"/>
		<path fill="#BB202A" d="M11.582,16.61l-6.404,2.331c0.084,1.027,0.259,2.042,0.508,3.035l6.082-2.216
			C11.571,18.733,11.501,17.677,11.582,16.61"/>
		<path fill="#BB202A" d="M39.881,9.531c-0.447-0.919-0.963-1.813-1.562-2.651l-6.402,2.33c0.746,0.765,1.371,1.62,1.881,2.536
			L39.881,9.531z"/>
		<path fill="#E02534" d="M25.792,7.718c1.333,0.624,2.487,1.47,3.459,2.463l6.402-2.331c-1.774-2.486-4.189-4.566-7.148-5.948
			C19.354-2.366,8.434,1.608,4.167,10.759c-1.383,2.961-1.896,6.107-1.654,9.153l6.402-2.331c0.108-1.385,0.446-2.776,1.067-4.11
			C12.753,7.527,19.848,4.945,25.792,7.718"/>
		<path fill="#E02534" d="M6.084,21.832L0,24.047c0.561,2.219,1.528,4.326,2.861,6.201l6.39-2.324
			C7.611,26.235,6.519,24.107,6.084,21.832"/>
		<path fill="#E02534" d="M32.622,19.419c-0.103,1.384-0.451,2.776-1.075,4.11c-2.773,5.945-9.866,8.526-15.811,5.754
			c-1.335-0.622-2.498-1.466-3.467-2.459l-6.388,2.325c1.769,2.487,4.183,4.568,7.143,5.949c9.152,4.267,20.071,0.294,24.339-8.858
			c1.383-2.959,1.891-6.104,1.648-9.147L32.622,19.419z"/>
		<path fill="#E02534" d="M34.195,11.6l-6.084,2.216c1.132,2.024,1.665,4.355,1.491,6.7l6.388-2.323
			C35.809,15.897,35.195,13.659,34.195,11.6"/>
		<path fill="#971C1F" d="M11.558,17.899c-0.018-0.428-0.011-0.857,0.023-1.286l-6.404,2.33c0.033,0.409,0.083,0.817,0.146,1.224
			L11.558,17.899z"/>
		<path fill="#971C1F" d="M38.954,7.845c-0.202-0.326-0.412-0.65-0.636-0.966l-6.402,2.33c0.283,0.29,0.542,0.596,0.79,0.909
			L38.954,7.845z"/>
		<path fill="#BB202A" d="M5.882,29.149c0.492,0.691,1.036,1.354,1.627,1.977l6.956-2.538c-0.814-0.508-1.548-1.101-2.196-1.764
			L5.882,29.149z M39.011,17.091l-6.391,2.327c-0.068,0.92-0.247,1.843-0.54,2.748l6.954-2.536
			C39.085,18.78,39.076,17.932,39.011,17.091"/>
		<path fill="#FFFFFF" d="M205.648,10.509c-0.067,0.161-0.158,0.3-0.276,0.416c-0.118,0.117-0.257,0.204-0.416,0.267
			c-0.16,0.064-0.333,0.094-0.524,0.094c-0.186,0-0.358-0.03-0.519-0.094c-0.161-0.063-0.298-0.15-0.417-0.267
			c-0.117-0.115-0.21-0.255-0.274-0.416c-0.068-0.161-0.104-0.341-0.104-0.537c0-0.197,0.035-0.376,0.104-0.537
			c0.064-0.162,0.157-0.3,0.274-0.416c0.119-0.114,0.256-0.204,0.417-0.269c0.16-0.062,0.333-0.094,0.519-0.094
			c0.191,0,0.364,0.032,0.524,0.094c0.159,0.065,0.298,0.155,0.416,0.269c0.118,0.115,0.209,0.253,0.276,0.416
			c0.066,0.161,0.102,0.34,0.102,0.537C205.75,10.167,205.714,10.348,205.648,10.509 M205.482,9.506
			c-0.058-0.141-0.136-0.263-0.239-0.362c-0.102-0.101-0.223-0.179-0.362-0.235c-0.137-0.056-0.287-0.085-0.449-0.085
			c-0.158,0-0.307,0.029-0.444,0.085s-0.258,0.135-0.359,0.235c-0.104,0.1-0.183,0.221-0.243,0.362
			c-0.058,0.14-0.086,0.294-0.086,0.466c0,0.17,0.028,0.324,0.086,0.465c0.061,0.143,0.14,0.263,0.243,0.363
			c0.102,0.1,0.222,0.179,0.359,0.235s0.286,0.083,0.444,0.083c0.162,0,0.312-0.027,0.449-0.083c0.14-0.056,0.261-0.135,0.362-0.235
			c0.104-0.1,0.182-0.22,0.239-0.363c0.06-0.141,0.088-0.295,0.088-0.465C205.57,9.8,205.542,9.646,205.482,9.506 M204.925,9.91
			c-0.061,0.07-0.143,0.117-0.242,0.143l0.324,0.622h-0.228l-0.312-0.607h-0.312v0.607h-0.194V9.221h0.589
			c0.134,0,0.243,0.035,0.331,0.102c0.092,0.07,0.136,0.174,0.136,0.317C205.016,9.749,204.985,9.84,204.925,9.91 M204.75,9.455
			c-0.047-0.039-0.118-0.062-0.209-0.062h-0.386v0.493h0.363c0.204,0,0.305-0.082,0.305-0.246
			C204.823,9.558,204.801,9.496,204.75,9.455"/>
	</g>
</g>
<g display="none">
	<path display="inline" fill="#FFFFFF" d="M223.192,28.571c-4.842,0-8.035-4.135-8.035-9.994c0-5.861,3.25-10.056,8.088-10.056
		c4.84,0,8.066,4.138,8.066,9.998C231.311,24.376,228.028,28.571,223.192,28.571 M223.165,10.492c-3.367,0-5.844,3.139-5.844,8.024
		c0,4.892,2.557,8.086,5.949,8.086c3.367,0,5.869-3.14,5.869-8.026C229.139,13.687,226.551,10.492,223.165,10.492"/>
	<path display="inline" fill="#FFFFFF" d="M247.856,28.269l-8.51-13.307c-0.422-0.665-1.145-1.943-1.395-2.443v1.333v14.417h-2.084
		V8.825h2.117l8.42,13.556c0.418,0.665,1.143,1.941,1.393,2.442v-1.334V8.825h2.084v19.443H247.856z"/>
	<polygon display="inline" fill="#FFFFFF" points="255.28,28.269 255.28,8.825 257.452,8.825 257.452,26.293 267.077,26.293 
		267.077,28.269 	"/>
	<rect x="271.694" y="8.825" display="inline" fill="#FFFFFF" width="2.162" height="19.443"/>
	<path display="inline" fill="#FFFFFF" d="M291.377,28.269l-8.506-13.307c-0.422-0.665-1.143-1.943-1.391-2.443v1.333v14.417h-2.088
		V8.825h2.117l8.42,13.556c0.418,0.665,1.145,1.941,1.395,2.442v-1.334V8.825h2.086v19.443H291.377z"/>
	<polygon display="inline" fill="#FFFFFF" points="298.805,28.269 298.805,8.825 310.573,8.825 310.573,10.796 300.977,10.796 
		300.977,16.908 306.54,16.908 306.54,18.883 300.977,18.883 300.977,26.293 310.993,26.293 310.993,28.269 	"/>
	<path display="inline" fill="#FFFFFF" d="M58.923,12.39c-2.72,0-4.526,2.192-4.526,6.13c0,3.938,1.889,6.184,4.612,6.184
		c2.72,0,4.522-2.191,4.522-6.13C63.532,14.638,61.643,12.39,58.923,12.39 M58.951,28.558c-5.08,0-8.551-3.715-8.551-9.983
		c0-6.263,3.527-10.038,8.611-10.038c5.049,0,8.522,3.715,8.522,9.982S64.003,28.558,58.951,28.558"/>
	<path display="inline" fill="#FFFFFF" d="M79.604,12.612h-4.47v4.993h4.527c1.803,0,2.776-0.832,2.776-2.525
		C82.437,13.387,81.324,12.612,79.604,12.612 M79.411,21.378h-4.278v6.874h-3.886V8.841h8.495c3.664,0,6.692,2.025,6.692,6.157
		C86.433,19.493,83.436,21.378,79.411,21.378"/>
	<polygon display="inline" fill="#FFFFFF" points="90.456,28.251 90.456,8.841 103.947,8.841 103.947,12.642 94.34,12.642 
		94.34,15.996 99.92,15.996 99.92,19.767 94.34,19.767 94.34,24.45 104.364,24.45 104.364,28.251 	"/>
	<path display="inline" fill="#FFFFFF" d="M121.1,28.251l-7.138-10.59c-0.473-0.719-1.109-1.692-1.359-2.189
		c0,0.721,0.053,3.16,0.053,4.244v8.536h-3.828V8.842h3.716l6.887,10.263c0.473,0.719,1.11,1.692,1.36,2.189
		c0-0.727-0.054-3.161-0.054-4.243V8.839h3.828v19.41H121.1V28.251z"/>
	<path display="inline" fill="#FFFFFF" d="M135.87,28.558c-2.635,0-4.996-1.141-6.52-2.688l1.439-1.609
		c1.473,1.414,3.166,2.33,5.166,2.33c2.584,0,4.193-1.274,4.193-3.327c0-1.805-1.082-2.828-4.637-4.104
		c-4.191-1.498-5.611-2.857-5.611-5.657c0-3.11,2.443-4.965,6.082-4.965c2.613,0,4.279,0.774,5.916,2.082l-1.389,1.691
		c-1.414-1.167-2.723-1.805-4.666-1.805c-2.662,0-3.775,1.33-3.775,2.856c0,1.611,0.725,2.523,4.609,3.91
		c4.305,1.554,5.639,2.996,5.639,5.879C142.315,26.202,139.924,28.558,135.87,28.558"/>
	<polygon display="inline" fill="#FFFFFF" points="158.965,28.251 158.965,19.103 149.303,19.103 149.303,28.251 147.139,28.251 
		147.139,8.841 149.303,8.841 149.303,17.132 158.965,17.132 158.965,8.841 161.131,8.841 161.131,28.251 	"/>
	<rect x="166.702" y="8.842" display="inline" fill="#FFFFFF" width="2.164" height="19.41"/>
	<polygon display="inline" fill="#FFFFFF" points="176.61,10.809 176.61,17.245 181.938,17.245 181.938,19.214 176.61,19.214 
		176.61,28.251 174.444,28.251 174.444,8.841 185.856,8.841 185.856,10.809 	"/>
	<polygon display="inline" fill="#FFFFFF" points="197.625,10.809 197.625,28.251 195.461,28.251 195.461,10.809 189.745,10.809 
		189.745,8.841 203.348,8.841 203.348,10.809 	"/>
	<path display="inline" fill="#BC1C29" d="M11.749,16.638l-6.498,2.361c0.085,1.04,0.263,2.066,0.514,3.075l6.169-2.248
		C11.736,18.788,11.666,17.714,11.749,16.638"/>
	<path display="inline" fill="#BC1C29" d="M40.451,9.465c-0.452-0.932-0.975-1.835-1.584-2.688l-6.495,2.362
		c0.756,0.774,1.391,1.641,1.909,2.57L40.451,9.465z"/>
	<path display="inline" fill="#E22434" d="M26.161,7.63c1.351,0.629,2.523,1.486,3.508,2.496l6.496-2.364
		c-1.801-2.519-4.25-4.626-7.25-6.023C19.632-2.587,8.553,1.438,4.229,10.712c-1.404,2.997-1.925,6.186-1.683,9.271l6.498-2.361
		c0.105-1.402,0.451-2.812,1.082-4.164C12.936,7.435,20.133,4.819,26.161,7.63"/>
	<path display="inline" fill="#E22434" d="M6.17,21.929L0,24.172c0.568,2.244,1.552,4.382,2.902,6.279l6.482-2.353
		C7.721,26.39,6.612,24.233,6.17,21.929"/>
	<path display="inline" fill="#E22434" d="M33.087,19.481c-0.104,1.401-0.455,2.812-1.088,4.164
		c-2.812,6.024-10.007,8.641-16.04,5.83c-1.351-0.633-2.532-1.484-3.515-2.492l-6.479,2.355c1.795,2.52,4.244,4.626,7.245,6.027
		c9.283,4.322,20.359,0.298,24.69-8.977c1.4-2.998,1.917-6.185,1.671-9.268L33.087,19.481z"/>
	<path display="inline" fill="#E22434" d="M34.686,11.559l-6.17,2.249c1.147,2.046,1.687,4.411,1.513,6.786l6.48-2.355
		C36.321,15.915,35.701,13.647,34.686,11.559"/>
	<path display="inline" fill="#97101B" d="M11.723,17.942c-0.016-0.434-0.01-0.868,0.026-1.305l-6.498,2.361
		c0.031,0.416,0.085,0.827,0.147,1.238L11.723,17.942z"/>
	<path display="inline" fill="#97101B" d="M39.513,7.758c-0.206-0.33-0.418-0.66-0.645-0.98L32.375,9.14
		c0.285,0.292,0.55,0.604,0.8,0.92L39.513,7.758z"/>
	<path display="inline" fill="#BC1C29" d="M5.966,29.34c0.499,0.7,1.052,1.373,1.651,2.002l7.054-2.567
		c-0.826-0.519-1.57-1.117-2.228-1.789L5.966,29.34z M39.571,17.125l-6.483,2.358c-0.068,0.932-0.25,1.865-0.548,2.781l7.051-2.568
		C39.645,18.834,39.635,17.976,39.571,17.125"/>
	<path display="inline" fill="#FFFFFF" d="M208.598,10.456c-0.068,0.164-0.16,0.304-0.279,0.422
		c-0.123,0.115-0.262,0.206-0.424,0.271c-0.162,0.064-0.338,0.095-0.533,0.095c-0.188,0-0.363-0.031-0.525-0.095
		c-0.162-0.065-0.303-0.155-0.426-0.271c-0.115-0.118-0.211-0.258-0.275-0.422c-0.07-0.163-0.105-0.344-0.105-0.544
		c0-0.198,0.035-0.38,0.105-0.542c0.064-0.165,0.16-0.305,0.275-0.422c0.123-0.118,0.264-0.206,0.426-0.271
		c0.162-0.062,0.34-0.095,0.525-0.095c0.195,0,0.371,0.032,0.533,0.095c0.16,0.065,0.301,0.154,0.424,0.271
		c0.119,0.117,0.211,0.257,0.279,0.422c0.066,0.162,0.1,0.344,0.1,0.542C208.698,10.112,208.665,10.293,208.598,10.456
		 M208.428,9.441c-0.061-0.146-0.141-0.267-0.244-0.367c-0.102-0.104-0.225-0.183-0.365-0.241c-0.139-0.056-0.291-0.086-0.457-0.086
		c-0.158,0-0.311,0.031-0.451,0.086c-0.139,0.058-0.26,0.137-0.361,0.241c-0.105,0.1-0.188,0.222-0.246,0.367
		c-0.061,0.143-0.092,0.297-0.092,0.471c0,0.171,0.031,0.331,0.092,0.473c0.059,0.143,0.141,0.265,0.246,0.368
		c0.104,0.102,0.225,0.179,0.361,0.236c0.145,0.059,0.293,0.085,0.451,0.085c0.164,0,0.318-0.027,0.457-0.085
		c0.143-0.057,0.266-0.135,0.365-0.236c0.104-0.103,0.186-0.225,0.244-0.368c0.062-0.143,0.09-0.301,0.09-0.473
		C208.52,9.739,208.489,9.582,208.428,9.441 M207.862,9.85c-0.061,0.071-0.141,0.118-0.244,0.144l0.33,0.629h-0.23l-0.316-0.616
		h-0.318v0.616h-0.193V9.151h0.598c0.135,0,0.246,0.036,0.336,0.104c0.092,0.07,0.139,0.176,0.139,0.321
		C207.956,9.686,207.924,9.777,207.862,9.85 M207.686,9.389c-0.047-0.042-0.119-0.063-0.213-0.063h-0.395v0.499h0.369
		c0.209,0,0.311-0.084,0.311-0.249C207.762,9.492,207.733,9.428,207.686,9.389"/>
</g>
</svg>
